<?xml version="1.0" encoding="utf-8"?>
<svg version="1.1" id="Camada_1" xmlns="http://www.w3.org/2000/svg" xmlns:xlink="http://www.w3.org/1999/xlink" x="0px" y="0px"
	 viewBox="0 0 1920 1080" style="enable-background:new 0 0 1920 1080;" xml:space="preserve">
<style type="text/css">
	.st0{fill-rule:evenodd;clip-rule:evenodd;}
	.st1{fill-rule:evenodd;clip-rule:evenodd;fill:#BB1733;}
	.st2{fill-rule:evenodd;clip-rule:evenodd;fill:#971828;}
</style>
<path id="Empiricus_8_" class="st0" d="M1920,544.3c0,30.5-24.1,52.6-63.6,52.6c-12,0-23.8-1.5-33.4-3.9l1.5-25.3
	c9.3,3.4,22.3,6.1,34.4,6.1c18.2,0,32.9-7.6,32.9-25.5c0-34.9-72.5-20.1-72.5-73.7c0-28.5,22.4-48.4,60.9-48.4
	c9.8,0,19.9,1.2,30,2.9l-1.5,23.8c-9.6-2.9-20.1-4.7-30-4.7c-20.6,0-31.2,9.6-31.2,23.3C1847.6,504.8,1920,492.5,1920,544.3z
	 M1735.7,426.2v105.4c0,31.4-12.5,42.9-39.9,42.9c-31.2,0-38.6-16.9-38.6-39.4V426.2H1630v110.9c0,30.9,11.2,59.8,64.1,59.8
	c44.1,0,68.3-22.4,68.3-67.3V426.2H1735.7z M1558.5,564.9c-9.2,4.5-23.8,7.7-35.2,7.7c-36.4,0-53-22.1-53-61
	c0-34.9,15.9-61.7,50.8-61.7c12.1,0,24,2,36.2,5.7l3-24.8c-11.6-2.7-24.5-4.7-36.9-4.7c-56.2,0-82.5,37.9-82.5,89.9
	c0,44.6,20.6,80.8,76.6,80.8c16.1,0,31.7-3,44.3-7.9L1558.5,564.9z M1345,426.2v170.7h27.6V426.2H1345z M1276.7,596.9h-34.4
	l-52.8-73.4h-1.3v73.4h-27.4V427.2c12.3-0.8,26.4-1,45.5-1c35.2,0,59.3,12.3,59.3,46c0,27.2-20.4,44.5-48,47.5
	c4.8,6,10.1,12.6,14.3,18.1L1276.7,596.9z M1201.5,503.3c22.1,0,35.5-11.3,35.5-28.2c0-18.6-11.6-26.6-34.4-26.6
	c-5.3,0-10.3,0.2-14.3,0.5l0,53.8C1190.7,503.1,1195.5,503.3,1201.5,503.3z M1065,426.2v170.7h27.6V426.2H1065z M996.7,477.2
	c0,32.9-26.4,57.6-65.9,57.6c-3.8,0-8.3,0-12.6-0.5v62.6h-27.4V427.2c13.1-0.5,27.7-1,43.5-1C974.6,426.2,996.7,445.8,996.7,477.2z
	 M968.3,479.5c0-19.4-11.3-30.9-35.9-30.9c-5.3,0-9.6,0-14.1,0.5v62.1c3.8,0.5,8,1,12.1,1C953.2,511.9,968.3,499.3,968.3,479.5z
	 M793.5,596.9h29.1l-26-170.7h-33.1l-33.6,99.6c-4,12.6-6.8,21.2-9.4,33.9h-0.5c-2-11.1-5.3-22.5-9.4-34.9l-32.9-98.6h-32.9
	l-25.5,170.7h28.1l10.9-88.3c1.8-16.2,3.5-29.6,4.6-44.3l0.5,0c2,12.4,6.3,27.1,10.9,40.5l30.6,92.1h28.6l32.1-99.1
	c4.3-12.7,6.8-23.8,8.9-33.4l0.5,0c1.3,11.1,2.5,23.5,5.3,41.7L793.5,596.9L793.5,596.9z M460.9,596.9h90v-23.5h-62.5v-53.1h59.4
	v-22.5h-59.4v-48.6H551v-23h-90V596.9z"/>
<g id="Marca_8_">
	<path class="st1" d="M313.9,746.9c-12.9-1.8-25.8-4.3-38.8-7.3c-3.8-0.9-7.9-7.3-9.1-14.2l0-0.3c-11.7-0.7-23.5-1.7-35.3-3.2
		c-5.6-0.8-11.3-8.9-12.4-18.1c-4-32.1-6.3-64.4-6.9-96.7c-6.7,1.6-13.3,3-20,4.3c1.1,44.8,5.7,89.5,13.8,133.7
		c2.6,14.4-2.6,23.1-12.3,19c-21.2-8.5-42.6-18.2-64.3-29.2c3.6,16.5,7.9,32.8,12.9,49c2.3,7.6,1.3,11.9-2.3,11.9
		c-1.8,0-4.3-1.1-7.3-3.3c-31.1-22.5-63.1-48-96.2-76.3c-9.7-8.4-19.1-19.1-20.7-23.5C0.4,652.6-3.5,609.5,3.2,567.8
		c0.8-4.7,8.7-13.1,17.7-19.3c14.5-9.7,29.1-20.1,43.9-31.1c1.3-8.1,2.9-16.2,4.7-24.3c1.6-7.4,11.9-20.2,22.7-29.1
		c24.4-19.6,49.1-40.5,74.2-62.7c3.2-11.3,6.7-22.6,10.5-33.8c2.9-8.7,13-23.1,22.3-32.5c32-32,64.7-65.8,98.2-101.2
		c9.8-10.4,13.7-8.8,8.9,3.8c-22.5,60-39,121.5-49.7,183.8c13.8-10.4,27.8-21.2,41.8-32.5c6.4-5.1,9.7,0,7.8,11.7
		c-6.1,36.3-10.4,72.9-13,109.5c2.9-1.6,5.8-3.3,8.7-5c4-2.3,6.7,2.5,6.1,10.9c-4.4,72.3-1.1,145,10,216.8
		C319.5,741.1,317.6,747.4,313.9,746.9z"/>
	<path class="st2" d="M288.3,725.9c-7.5-0.1-15-0.3-22.4-0.8C255.5,665,251.5,603.9,253.9,543c0.3-7,3.8-14.2,7.6-16.1
		c10.5-5.2,21.2-10.8,31.8-16.7c-4.5,64.9-3.7,130,2.7,194.7C297.2,716.6,293.9,726.1,288.3,725.9z M234,438.2
		c-6.2,4.5-12.4,15.5-13.7,24.6c-6.8,47.9-9.8,96.1-9,144.3c5.9-1.4,11.9-2.9,17.9-4.5c7.3-1.9,13.1-14.3,13.3-27.6
		c0.8-51.4,5.7-102.8,14.3-153.6C249.2,427.2,241.5,432.8,234,438.2z M206.2,365.4c-13.4,12.3-26.7,24.3-39.8,35.9
		c-18.5,65.7-27.1,133.4-26,201.1c0.1,9,6.4,15.9,13.6,15c12.4-1.5,24.9-3.6,37.3-6c-1.9-80.5,7.4-161.3,28.2-239.8
		C223.4,357.5,217.6,354.9,206.2,365.4z M127.5,484.1c1.5-7.1,0.1-10.9-3.4-10.9c-2.2,0-5.2,1.5-8.8,4.5
		c-17,14.1-33.9,27.3-50.5,39.7c-9.5,57.7-7.7,116.7,5.2,173.9c1.7,7.4,11.4,18.2,21.4,24c12.4,7,25,13.5,37.2,19.7
		C110.6,652.4,110.1,566.8,127.5,484.1z"/>
</g>
</svg>
