<?xml version="1.0" standalone="no"?>
<!DOCTYPE svg PUBLIC "-//W3C//DTD SVG 20010904//EN"
 "http://www.w3.org/TR/2001/REC-SVG-20010904/DTD/svg10.dtd">
<svg version="1.0" xmlns="http://www.w3.org/2000/svg"
 width="64.000000pt" height="64.000000pt" viewBox="0 0 64.000000 64.000000"
 preserveAspectRatio="xMidYMid meet">

<g transform="translate(0.000000,64.000000) scale(0.100000,-0.100000)"
fill="#000000" stroke="none">
<path d="M133 467 c-76 -48 -83 -55 -83 -85 0 -20 6 -35 15 -38 12 -5 15 -26
15 -105 0 -59 -4 -99 -10 -99 -5 0 -10 -4 -10 -10 0 -6 93 -10 260 -10 167 0
260 4 260 10 0 6 -4 10 -10 10 -6 0 -10 34 -10 83 0 82 0 82 -33 105 -21 14
-48 22 -75 22 -39 0 -42 2 -42 28 0 16 -8 36 -17 44 -26 22 -157 98 -169 97
-5 0 -46 -24 -91 -52z m180 -17 c60 -35 77 -50 77 -68 0 -13 -3 -21 -7 -19 -5
3 -38 23 -76 46 -37 22 -73 41 -80 41 -7 0 -28 -10 -47 -23 -19 -13 -52 -33
-72 -46 l-38 -23 0 24 c0 18 16 33 78 70 42 26 79 46 83 45 3 -1 40 -22 82
-47z m-18 -57 l65 -38 0 -67 c0 -54 -3 -68 -15 -68 -8 0 -15 -4 -15 -10 0 -5
7 -10 15 -10 8 0 15 -4 15 -10 0 -5 -16 -10 -35 -10 -34 0 -35 1 -35 38 0 47
-14 62 -60 62 -46 0 -60 -15 -60 -62 0 -37 -1 -38 -35 -38 -19 0 -35 5 -35 10
0 6 7 10 15 10 8 0 15 5 15 10 0 6 -7 10 -15 10 -12 0 -15 14 -15 68 l0 67 63
37 c34 21 63 38 65 38 2 0 32 -17 67 -37z m211 -78 c17 -13 12 -14 -53 -15
-58 0 -73 3 -73 15 0 21 99 21 126 0z m34 -105 c0 -40 -4 -70 -10 -70 -6 0
-10 27 -10 60 l0 60 -70 0 c-40 0 -70 4 -70 10 0 6 33 10 80 10 l80 0 0 -70z
m-270 -10 l0 -60 -40 0 -40 0 0 60 0 60 40 0 40 0 0 -60z m230 10 c0 -6 -27
-10 -60 -10 -33 0 -60 4 -60 10 0 6 27 10 60 10 33 0 60 -4 60 -10z m0 -40 c0
-6 -27 -10 -60 -10 -33 0 -60 4 -60 10 0 6 27 10 60 10 33 0 60 -4 60 -10z"/>
<path d="M200 375 c-15 -18 -10 -45 13 -59 34 -22 73 27 47 59 -16 19 -44 19
-60 0z m46 -16 c10 -17 -13 -36 -27 -22 -12 12 -4 33 11 33 5 0 12 -5 16 -11z"/>
<path d="M230 200 c0 -11 5 -20 10 -20 6 0 10 9 10 20 0 11 -4 20 -10 20 -5 0
-10 -9 -10 -20z"/>
</g>
</svg>
